<?xml version="1.0" ?><svg height="60px" version="1.1" viewBox="0 0 60 60" width="60px" xmlns="http://www.w3.org/2000/svg" xmlns:xlink="http://www.w3.org/1999/xlink"><title/><desc/><defs/><g fill="none" fill-rule="evenodd" id="Page-1" stroke="none" stroke-width="1"><g fill-rule="nonzero" id="031---Star-Fish"><g id="Icons"><path d="M33.053,2.973 L39.358,16.367 C39.8351213,17.397466 40.7944146,18.1223737 41.916,18.3 L56.1,20.463 C57.3900219,20.6966897 58.4450632,21.6245683 58.8416168,22.8741733 C59.2381704,24.1237782 58.9112171,25.4902234 57.992,26.425 L47.663,36.978 C46.8740612,37.7934963 46.5182889,38.9346386 46.704,40.054 L49.132,54.9 C49.3826596,56.190507 48.8709703,57.5104064 47.8159522,58.2947375 C46.760934,59.0790686 45.3495814,59.1888144 44.186,58.577 L31.6,51.641 C30.6046883,51.0892319 29.3953117,51.0892319 28.4,51.641 L15.814,58.579 C14.6500654,59.1912131 13.2381138,59.0813376 12.1829001,58.2964345 C11.1276865,57.5115313 10.6163882,56.1908293 10.868,54.9 L13.3,40.054 C13.4857111,38.9346386 13.1299388,37.7934963 12.341,36.978 L2.011,26.425 C1.09185583,25.4906399 0.76456266,24.1247074 1.16043975,22.8752531 C1.55631683,21.6257988 2.61049183,20.6975707 3.9,20.463 L18.084,18.3 C19.2062237,18.1217607 20.1656535,17.3956246 20.642,16.364 L26.947,2.973 C27.4877024,1.77170351 28.6826267,0.999152466 30,0.999152466 C31.3173733,0.999152466 32.5122976,1.77170351 33.053,2.973 Z" fill="#FFACAD" id="Shape"/><circle cx="30" cy="12" fill="#F96A59" id="Oval" r="2"/><circle cx="30" cy="22" fill="#735EFF" id="Oval" r="4"/><circle cx="10.001" cy="26.001" fill="#F96A59" id="Oval" r="2"/><circle cx="19.201" cy="29.918" fill="#735EFF" id="Oval" r="4"/><circle cx="17.363" cy="50.48" fill="#F96A59" id="Oval" r="2"/><circle cx="24" cy="43" fill="#735EFF" id="Oval" r="4"/><circle cx="42.637" cy="50.48" fill="#F96A59" id="Oval" r="2"/><circle cx="36" cy="43" fill="#735EFF" id="Oval" r="4"/><circle cx="49.999" cy="26.001" fill="#F96A59" id="Oval" r="2"/><circle cx="40.799" cy="29.918" fill="#735EFF" id="Oval" r="4"/></g><g fill="#000000" id="Layer_10"><path d="M56.172,19.969 L41.991,17.809 C41.0333186,17.6559806 40.2151626,17.0351424 39.81,16.154 L33.51,2.761 C32.8864269,1.38454859 31.5151128,0.500321441 30.004,0.500321441 C28.4928872,0.500321441 27.1215731,1.38454859 26.498,2.761 L20.198,16.154 C19.7928374,17.0351424 18.9746814,17.6559806 18.017,17.809 L3.828,19.969 C2.36743242,20.1870665 1.15928873,21.2193461 0.716,22.628 C0.221915165,24.0761409 0.584180292,25.6790771 1.653,26.774 L11.979,37.328 C12.6572283,38.029721 12.9628975,39.0112753 12.803,39.974 L10.374,54.821 C10.1091286,56.3496639 10.7468692,57.8944048 12.013,58.791 C13.1998438,59.6513099 14.7796488,59.7396414 16.055,59.017 L28.643,52.079 C29.4868602,51.6099176 30.5131398,51.6099176 31.357,52.079 L43.945,59.017 C45.2204706,59.7391307 46.7999806,59.6508157 47.987,58.791 C49.2531308,57.8944048 49.8908714,56.3496639 49.626,54.821 L47.2,39.974 C47.0401025,39.0112753 47.3457717,38.029721 48.024,37.328 L58.347,26.774 C59.4158197,25.6790771 59.7780848,24.0761409 59.284,22.628 C58.8407113,21.2193461 57.6325676,20.1870665 56.172,19.969 Z M57.632,26.075 L47.306,36.628 C46.4040157,37.5564626 45.9958677,38.8577127 46.206,40.135 L48.635,54.982 C48.8367071,56.1328984 48.3584604,57.2971898 47.406,57.974 C46.5299169,58.6083193 45.3644101,58.6735689 44.423,58.141 L31.84,51.2 C30.6954411,50.5652755 29.3045589,50.5652755 28.16,51.2 L15.573,58.141 C14.6318288,58.6745904 13.4657318,58.6093077 12.59,57.974 C11.6375396,57.2971898 11.1592929,56.1328984 11.361,54.982 L13.79,40.135 C14.0001323,38.8577127 13.5919843,37.5564626 12.69,36.628 L2.368,26.075 C1.56362437,25.246862 1.29302378,24.0368908 1.668,22.945 C1.99646854,21.8946429 2.89498619,21.1234314 3.983,20.958 L18.159,18.8 C19.4462701,18.5977256 20.5474724,17.7659145 21.094,16.583 L27.4,3.187 C27.8597004,2.1630471 28.8775901,1.50426175 30,1.50426175 C31.1224099,1.50426175 32.1402996,2.1630471 32.6,3.187 L38.9,16.58 C39.4468956,17.7656643 40.5508506,18.5989796 41.841,18.8 L56.021,20.961 C57.1090138,21.1264314 58.0075315,21.8976429 58.336,22.948 C58.7087139,24.0397496 58.4366233,25.2483113 57.632,26.075 Z" id="Shape"/><path d="M30,14.5 C31.3807119,14.5 32.5,13.3807119 32.5,12 C32.5,10.6192881 31.3807119,9.5 30,9.5 C28.6192881,9.5 27.5,10.6192881 27.5,12 C27.5,13.3807119 28.6192881,14.5 30,14.5 Z M30,10.5 C30.8284271,10.5 31.5,11.1715729 31.5,12 C31.5,12.8284271 30.8284271,13.5 30,13.5 C29.1715729,13.5 28.5,12.8284271 28.5,12 C28.5,11.1715729 29.1715729,10.5 30,10.5 Z" id="Shape"/><path d="M34.5,22 C34.5,19.5147186 32.4852814,17.5 30,17.5 C27.5147186,17.5 25.5,19.5147186 25.5,22 C25.5,24.4852814 27.5147186,26.5 30,26.5 C32.4841391,26.4972444 34.4972444,24.4841391 34.5,22 Z M30,25.5 C28.0670034,25.5 26.5,23.9329966 26.5,22 C26.5,20.0670034 28.0670034,18.5 30,18.5 C31.9329966,18.5 33.5,20.0670034 33.5,22 C33.5,23.9329966 31.9329966,25.5 30,25.5 Z" id="Shape"/><path d="M10.98,23.7 C9.70978756,23.1588271 8.24136812,23.7498128 7.7001681,25.0200137 C7.15896808,26.2902145 7.74992244,27.7586466 9.02011178,28.2998737 C10.2903011,28.8411008 11.7587458,28.2501778 12.3,26.98 C12.8383085,25.7097169 12.2481608,24.2432893 10.98,23.7 Z M11.38,26.588 C11.0554734,27.3501282 10.1746092,27.7049279 9.41243596,27.380507 C8.65026277,27.0560862 8.29534085,26.1752712 8.61965594,25.413053 C8.94397103,24.6508348 9.82473682,24.2957907 10.587,24.62 C10.953367,24.7755596 11.2428863,25.0703527 11.3918078,25.4394678 C11.5407292,25.8085829 11.5368412,26.2217527 11.381,26.588 L11.38,26.588 Z" id="Shape"/><path d="M17.438,34.058 C19.1127113,34.7717935 21.0525149,34.4062303 22.3525448,33.1318358 C23.6525747,31.8574412 24.0566935,29.9253019 23.3763907,28.2367086 C22.6960879,26.5481153 21.0653998,25.4357618 19.2449981,25.418531 C17.4245964,25.4013001 15.7731445,26.4825868 15.061,28.158 C14.5888821,29.2550721 14.5743713,30.495246 15.0206907,31.6030644 C15.46701,32.7108828 16.3372068,33.5946245 17.438,34.058 Z M15.981,28.547 C16.5354779,27.2444362 17.8200272,26.404162 19.2356281,26.4180198 C20.6512291,26.4318776 21.9190823,27.2971381 22.447954,28.6103072 C22.9768256,29.9234762 22.6625555,31.4259281 21.6516963,32.4170294 C20.640837,33.4081307 19.1324751,33.6926862 17.83,33.138 C16.9720886,32.7790536 16.2936621,32.0914793 15.9462379,31.2288375 C15.5988136,30.3661958 15.611333,29.4003468 15.981,28.547 Z" id="Shape"/><path d="M15.493,48.82 C14.8216525,49.5761772 14.6719418,50.6623151 15.1136823,51.5719177 C15.5554228,52.4815202 16.5016145,53.0354428 17.511022,52.975376 C18.5204294,52.9153093 19.3942518,52.2530832 19.7250015,51.2975122 C20.0557512,50.3419411 19.7782878,49.281223 19.022,48.61 C17.9894634,47.6935998 16.4095703,47.7876144 15.493,48.82 Z M18.485,51.476 C17.9352437,52.0956062 16.9873145,52.1523015 16.3676247,51.6026394 C15.7479349,51.0529773 15.6910955,50.1050568 16.2406633,49.4852834 C16.7902312,48.86551 17.738143,48.8085264 18.358,49.358 C18.6557866,49.6219736 18.8364749,49.9934591 18.8602937,50.390689 C18.8841125,50.7879188 18.7491094,51.1783339 18.485,51.476 Z" id="Shape"/><path d="M20.634,40.013 C19.4588486,41.3371313 19.1692925,43.2272705 19.8941589,44.8424712 C20.6190252,46.4576719 22.2236047,47.4977649 23.994,47.5 C24.085,47.5 24.177,47.5 24.268,47.492 C26.3010322,47.3705602 27.9990512,45.8987969 28.4080198,43.9036246 C28.8169885,41.9084524 27.8349379,39.8873308 26.0136363,38.9758331 C24.1923347,38.0643354 21.98589,38.4897269 20.634,40.013 Z M26.618,45.323 C25.5096549,46.5719321 23.6734019,46.8639816 22.2322714,46.0205347 C20.7911408,45.1770877 20.1465318,43.4330702 20.6926795,41.8551022 C21.2388272,40.2771343 22.8236128,39.3047286 24.4778002,39.5325968 C26.1319877,39.760465 27.3948351,41.1251388 27.494,42.792 C27.5491159,43.7184414 27.2340181,44.6288436 26.618,45.323 Z" id="Shape"/><path d="M40.978,48.61 C40.2217122,49.281223 39.9442488,50.3419411 40.2749985,51.2975122 C40.6057482,52.2530832 41.4795706,52.9153093 42.488978,52.975376 C43.4983855,53.0354428 44.4445772,52.4815202 44.8863177,51.5719177 C45.3280582,50.6623151 45.1783475,49.5761772 44.507,48.82 C43.5904297,47.7876144 42.0105366,47.6935998 40.978,48.61 Z M43.632,51.6 C43.012143,52.1494736 42.0642312,52.09249 41.5146633,51.4727166 C40.9650955,50.8529432 41.0219349,49.9050227 41.6416247,49.3553606 C42.2613145,48.8056985 43.2092437,48.8623938 43.759,49.482 C44.0231094,49.7796661 44.1581125,50.1700812 44.1342937,50.567311 C44.1104749,50.9645409 43.9297866,51.3360264 43.632,51.6 Z" id="Shape"/><path d="M39.366,40.013 C38.01411,38.4897269 35.8076653,38.0643354 33.9863637,38.9758331 C32.1650621,39.8873308 31.1830115,41.9084524 31.5919802,43.9036246 C32.0009488,45.8987969 33.6989678,47.3705602 35.732,47.492 C35.824,47.498 35.915,47.5 36.006,47.5 C37.7763953,47.4977649 39.3809748,46.4576719 40.1058411,44.8424712 C40.8307075,43.2272705 40.5411514,41.3371313 39.366,40.013 Z M38.323,45.618 C37.1574004,46.652234 35.4484394,46.7913036 34.130958,45.9591347 C32.8134765,45.1269658 32.2048378,43.5240164 32.6379812,42.0271365 C33.0711246,40.5302567 34.4417117,39.5000242 36,39.5 C36.07,39.5 36.141,39.5 36.212,39.506 C37.6253293,39.5900404 38.8488184,40.5172938 39.3118146,41.8552763 C39.7748108,43.1932587 39.386107,44.6783964 38.327,45.618 L38.323,45.618 Z" id="Shape"/><path d="M49.02,23.7 C47.7498007,24.2410282 47.1586317,25.7092704 47.6995433,26.9795193 C48.240455,28.2497683 49.7086429,28.8410721 50.9789415,28.300277 C52.2492401,27.7594819 52.8406785,26.2913482 52.3,25.021 C51.7570959,23.7524505 50.290557,23.1618109 49.02,23.7 Z M51.391,26.561 C51.1234941,27.2247319 50.4243844,27.6070702 49.7212181,27.4741923 C49.0180518,27.3413144 48.5066703,26.7302287 48.4998137,26.0146503 C48.4929571,25.299072 48.9925351,24.6782993 49.6930261,24.5319718 C50.3935171,24.3856442 51.0998248,24.754516 51.38,25.413 C51.5368609,25.7788357 51.540822,26.1922257 51.391,26.561 Z" id="Shape"/><path d="M42.48,25.744 C40.4885837,24.9419264 38.207907,25.6582988 37.0327793,27.4550001 C35.8576517,29.2517015 36.1153746,31.6283072 37.6483306,33.1313397 C39.1812866,34.6343722 41.5625105,34.8452007 43.3357003,33.6348873 C45.1088902,32.4245738 45.7801698,30.13022 44.939,28.155 C44.4737657,27.0554914 43.588465,26.1874719 42.48,25.744 Z M42.17,33.138 C40.8675249,33.6926862 39.359163,33.4081307 38.3483037,32.4170294 C37.3374445,31.4259281 37.0231744,29.9234762 37.552046,28.6103072 C38.0809177,27.2971381 39.3487709,26.4318776 40.7643719,26.4180198 C42.1799728,26.404162 43.4645221,27.2444362 44.019,28.547 C44.7718471,30.3253973 43.9452597,32.3777838 42.17,33.138 Z" id="Shape"/></g></g></g></svg>